<svg width="443" height="128" viewBox="0 0 443 128" fill="none" xmlns="http://www.w3.org/2000/svg">
<path d="M80.05 23.65C70.95 31.15 61.9 38.6 52.9 46C44 53.4 34.95 60.8 25.75 68.2H80.05V23.65ZM49.15 60.1C52.95 57 56.7 53.85 60.4 50.65C64.2 47.45 68 44.25 71.8 41.05V60.1H49.15ZM12.25 69.7C24.05 60.1 35.7 50.55 47.2 41.05C58.8 31.55 70.45 21.95 82.15 12.25H89.5V68.2H102.25V77.5H89.5V100.75H80.05V77.5H12.25V69.7ZM71.8 85.9V109.15H97.6V85.9H110.65V60.1H97.6V3.84999H79L3.85 65.95V85.9H71.8ZM0.1 64.3L77.65 0.0999984H101.35L115.9 15.55V58.75L128.95 71.8V104.2H115.9V127.45H83.5L68.05 112.9V104.2H15.55L0.1 89.65V64.3ZM218.479 91.6C224.279 91.6 229.679 91 234.679 89.8C239.779 88.5 244.179 86.5 247.879 83.8C251.679 81 254.629 77.4 256.729 73C258.829 68.5 259.879 63 259.879 56.5C259.879 49.6 258.729 43.9 256.429 39.4C254.129 34.9 250.979 31.3 246.979 28.6C242.979 25.9 238.329 24.05 233.029 23.05C227.729 21.95 222.079 21.4 216.079 21.4C210.279 21.4 204.829 22.05 199.729 23.35C194.729 24.55 190.379 26.55 186.679 29.35C182.979 32.05 180.029 35.65 177.829 40.15C175.729 44.65 174.679 50.1 174.679 56.5C174.679 63.4 175.829 69.15 178.129 73.75C180.429 78.25 183.529 81.85 187.429 84.55C191.429 87.15 196.079 89 201.379 90.1C206.779 91.1 212.479 91.6 218.479 91.6ZM216.079 83.2C211.579 83.2 207.329 82.75 203.329 81.85C199.329 80.95 195.829 79.45 192.829 77.35C189.829 75.25 187.429 72.5 185.629 69.1C183.929 65.7 183.079 61.5 183.079 56.5C183.079 51.1 184.029 46.65 185.929 43.15C187.929 39.65 190.579 36.95 193.879 35.05C197.179 33.05 200.929 31.7 205.129 31C209.429 30.2 213.879 29.8 218.479 29.8C222.879 29.8 227.079 30.25 231.079 31.15C235.079 32.05 238.579 33.55 241.579 35.65C244.579 37.75 246.979 40.5 248.779 43.9C250.579 47.3 251.479 51.5 251.479 56.5C251.479 62 250.479 66.5 248.479 70C246.579 73.4 243.979 76.1 240.679 78.1C237.379 80 233.579 81.35 229.279 82.15C225.079 82.85 220.679 83.2 216.079 83.2ZM165.229 56.5C165.229 47.9 166.579 40.75 169.279 35.05C172.079 29.35 175.879 24.85 180.679 21.55C185.479 18.15 191.079 15.75 197.479 14.35C203.979 12.95 210.979 12.25 218.479 12.25C225.779 12.25 232.529 13.05 238.729 14.65C244.929 16.25 250.279 18.8 254.779 22.3C259.379 25.8 262.929 30.35 265.429 35.95C268.029 41.55 269.329 48.4 269.329 56.5C269.329 65.1 267.929 72.25 265.129 77.95C262.429 83.65 258.679 88.2 253.879 91.6C249.079 94.9 243.429 97.25 236.929 98.65C230.529 100.05 223.579 100.75 216.079 100.75C208.779 100.75 202.029 99.95 195.829 98.35C189.629 96.75 184.229 94.2 179.629 90.7C175.129 87.2 171.579 82.65 168.979 77.05C166.479 71.45 165.229 64.6 165.229 56.5ZM156.829 56.5C156.829 66.5 158.379 74.9 161.479 81.7C164.579 88.4 168.879 93.8 174.379 97.9C179.879 101.9 186.379 104.8 193.879 106.6C201.379 108.3 209.579 109.15 218.479 109.15C227.179 109.15 235.129 108.2 242.329 106.3C249.629 104.3 255.879 101.2 261.079 97C266.379 92.8 270.479 87.4 273.379 80.8C276.279 74.1 277.729 66 277.729 56.5C277.729 46.5 276.179 38.15 273.079 31.45C269.979 24.65 265.679 19.25 260.179 15.25C254.679 11.15 248.129 8.25 240.529 6.55C233.029 4.75 224.879 3.84999 216.079 3.84999C207.379 3.84999 199.379 4.84999 192.079 6.84999C184.879 8.74999 178.629 11.8 173.329 16C168.129 20.2 164.079 25.65 161.179 32.35C158.279 38.95 156.829 47 156.829 56.5ZM153.079 56.5C153.079 46.3 154.629 37.65 157.729 30.55C160.829 23.35 165.129 17.5 170.629 13C176.229 8.49999 182.879 5.24999 190.579 3.24999C198.379 1.15 206.879 0.0999984 216.079 0.0999984C228.079 0.0999984 238.679 1.45 247.879 4.14999C257.079 6.84999 265.229 11.55 272.329 18.25C277.229 23.05 281.179 27.7 284.179 32.2C287.279 36.6 289.679 40.95 291.379 45.25C293.179 49.55 294.379 53.85 294.979 58.15C295.679 62.45 296.029 66.9 296.029 71.5C296.029 81.6 294.479 90.2 291.379 97.3C288.279 104.4 283.979 110.15 278.479 114.55C272.979 119.05 266.379 122.3 258.679 124.3C250.979 126.4 242.579 127.45 233.479 127.45C228.179 127.45 223.029 127.2 218.029 126.7C213.129 126.2 208.179 125.1 203.179 123.4C198.279 121.7 193.279 119.2 188.179 115.9C183.079 112.6 177.729 108.15 172.129 102.55C166.229 98.15 161.579 92.1 158.179 84.4C154.779 76.6 153.079 67.3 153.079 56.5ZM216.079 79.45C220.179 79.45 224.129 79.15 227.929 78.55C231.729 77.95 235.079 76.8 237.979 75.1C240.979 73.4 243.329 71.05 245.029 68.05C246.829 65.05 247.729 61.2 247.729 56.5C247.729 54.1 247.429 51.9 246.829 49.9C242.729 48.7 238.279 48.1 233.479 48.1C229.279 48.1 225.229 48.45 221.329 49.15C217.529 49.75 214.129 50.95 211.129 52.75C208.229 54.45 205.879 56.8 204.079 59.8C202.279 62.8 201.379 66.7 201.379 71.5C201.379 72.6 201.379 73.65 201.379 74.65C201.479 75.65 201.629 76.6 201.829 77.5C206.029 78.8 210.779 79.45 216.079 79.45ZM393.82 23.65C384.72 31.15 375.67 38.6 366.67 46C357.77 53.4 348.72 60.8 339.52 68.2H393.82V23.65ZM362.92 60.1C366.72 57 370.47 53.85 374.17 50.65C377.97 47.45 381.77 44.25 385.57 41.05V60.1H362.92ZM326.02 69.7C337.82 60.1 349.47 50.55 360.97 41.05C372.57 31.55 384.22 21.95 395.92 12.25H403.27V68.2H416.02V77.5H403.27V100.75H393.82V77.5H326.02V69.7ZM385.57 85.9V109.15H411.37V85.9H424.42V60.1H411.37V3.84999H392.77L317.62 65.95V85.9H385.57ZM313.87 64.3L391.42 0.0999984H415.12L429.67 15.55V58.75L442.72 71.8V104.2H429.67V127.45H397.27L381.82 112.9V104.2H329.32L313.87 89.65V64.3Z" fill="black"/>
</svg>
