<svg width="30" height="30" viewBox="0 0 30 30" fill="none" xmlns="http://www.w3.org/2000/svg">
<g id="basil:add-outline">
<path id="Vector" d="M8.75879 15C8.75879 14.7513 8.85756 14.5129 9.03338 14.3371C9.20919 14.1613 9.44765 14.0625 9.69629 14.0625H14.0625V9.69623C14.0625 9.44759 14.1613 9.20913 14.3371 9.03332C14.5129 8.8575 14.7514 8.75873 15 8.75873C15.2487 8.75873 15.4871 8.8575 15.663 9.03332C15.8388 9.20913 15.9375 9.44759 15.9375 9.69623V14.0625H20.3038C20.5524 14.0625 20.7909 14.1613 20.9667 14.3371C21.1425 14.5129 21.2413 14.7513 21.2413 15C21.2413 15.2486 21.1425 15.4871 20.9667 15.6629C20.7909 15.8387 20.5524 15.9375 20.3038 15.9375H15.9375V20.3037C15.9375 20.5524 15.8388 20.7908 15.663 20.9666C15.4871 21.1425 15.2487 21.2412 15 21.2412C14.7514 21.2412 14.5129 21.1425 14.3371 20.9666C14.1613 20.7908 14.0625 20.5524 14.0625 20.3037V15.9375H9.69629C9.44765 15.9375 9.20919 15.8387 9.03338 15.6629C8.85756 15.4871 8.75879 15.2486 8.75879 15Z" fill="#565656"/>
<path id="Vector_2" fill-rule="evenodd" clip-rule="evenodd" d="M9.14617 4.71123C13.0368 4.27993 16.9631 4.27993 20.8537 4.71123C23.1374 4.96623 24.9812 6.76498 25.2487 9.06123C25.7112 13.0075 25.7112 16.9937 25.2487 20.94C24.9799 23.2362 23.1362 25.0337 20.8537 25.29C16.9631 25.7213 13.0368 25.7213 9.14617 25.29C6.86242 25.0337 5.01867 23.2362 4.75117 20.94C4.28965 16.9938 4.28965 13.0074 4.75117 9.06123C5.01867 6.76498 6.86367 4.96623 9.14617 4.71123ZM20.6462 6.57373C16.8935 6.15778 13.1063 6.15778 9.35367 6.57373C8.65898 6.6508 8.01055 6.95983 7.51315 7.45088C7.01574 7.94193 6.69841 8.58633 6.61242 9.27998C6.16786 13.0812 6.16786 16.9213 6.61242 20.7225C6.69868 21.4159 7.01612 22.06 7.5135 22.5508C8.01088 23.0416 8.65916 23.3505 9.35367 23.4275C13.0749 23.8425 16.9249 23.8425 20.6462 23.4275C21.3405 23.3502 21.9885 23.0412 22.4856 22.5505C22.9827 22.0597 23.3 21.4157 23.3862 20.7225C23.8307 16.9213 23.8307 13.0812 23.3862 9.27998C23.2997 8.58697 22.9823 7.94329 22.4852 7.45276C21.9881 6.96223 21.3403 6.65345 20.6462 6.57623V6.57373Z" fill="#565656"/>
</g>
</svg>
