<svg xmlns="http://www.w3.org/2000/svg" width="41" height="41" viewBox="0 0 41 41" fill="none">
  <path d="M6.83317 35.875C5.89359 35.875 5.08896 35.5402 4.4193 34.8705C3.74963 34.2008 3.41537 33.3968 3.41651 32.4583V13.6667C3.41651 12.7271 3.75134 11.9225 4.42101 11.2528C5.09067 10.5831 5.89473 10.2489 6.83317 10.25H13.6665V6.83333C13.6665 5.89374 14.0013 5.08912 14.671 4.41945C15.3407 3.74978 16.1447 3.41552 17.0832 3.41666H23.9165C24.8561 3.41666 25.6607 3.75149 26.3304 4.42116C27 5.09083 27.3343 5.89488 27.3332 6.83333V10.25H34.1665C35.1061 10.25 35.9107 10.5848 36.5804 11.2545C37.25 11.9242 37.5843 12.7282 37.5832 13.6667V20.9698C37.0707 20.5996 36.5297 20.279 35.9603 20.008C35.3908 19.7369 34.7929 19.5023 34.1665 19.3042V13.6667H6.83317V32.4583H18.9196C19.005 33.0562 19.1332 33.6399 19.304 34.2094C19.4748 34.7788 19.6884 35.334 19.9446 35.875H6.83317ZM17.0832 10.25H23.9165V6.83333H17.0832V10.25ZM30.7498 39.2917C28.3866 39.2917 26.372 38.4586 24.7058 36.7924C23.0396 35.1262 22.207 33.112 22.2082 30.75C22.2082 28.3868 23.0413 26.3721 24.7075 24.7059C26.3737 23.0397 28.3878 22.2072 30.7498 22.2083C33.113 22.2083 35.1277 23.0414 36.7939 24.7076C38.4601 26.3738 39.2926 28.3879 39.2915 30.75C39.2915 33.1132 38.4584 35.1279 36.7922 36.7941C35.126 38.4603 33.1119 39.2928 30.7498 39.2917ZM31.604 30.4083V26.4792C31.604 26.2514 31.5186 26.0521 31.3478 25.8812C31.1769 25.7104 30.9776 25.625 30.7498 25.625C30.5221 25.625 30.3228 25.7104 30.1519 25.8812C29.9811 26.0521 29.8957 26.2514 29.8957 26.4792V30.3656C29.8957 30.5934 29.9384 30.8143 30.0238 31.0285C30.1092 31.2426 30.2373 31.4345 30.4082 31.6042L32.9707 34.1667C33.1415 34.3375 33.3408 34.4229 33.5686 34.4229C33.7964 34.4229 33.9957 34.3375 34.1665 34.1667C34.3373 33.9958 34.4228 33.7965 34.4228 33.5687C34.4228 33.341 34.3373 33.1417 34.1665 32.9708L31.604 30.4083Z" fill="#252525"/>
</svg>