<svg xmlns="http://www.w3.org/2000/svg" width="50" height="50" viewBox="0 0 50 50" fill="none">
  <path d="M11.25 14.375C11.25 12.8832 11.8426 11.4524 12.8975 10.3975C13.9524 9.34263 15.3832 8.75 16.875 8.75C18.3668 8.75 19.7976 9.34263 20.8525 10.3975C21.9074 11.4524 22.5 12.8832 22.5 14.375C22.5 15.8668 21.9074 17.2976 20.8525 18.3525C19.7976 19.4074 18.3668 20 16.875 20C15.3832 20 13.9524 19.4074 12.8975 18.3525C11.8426 17.2976 11.25 15.8668 11.25 14.375ZM16.875 6.25C14.7201 6.25 12.6535 7.10602 11.1298 8.62976C9.60602 10.1535 8.75 12.2201 8.75 14.375C8.75 16.5299 9.60602 18.5965 11.1298 20.1202C12.6535 21.644 14.7201 22.5 16.875 22.5C19.0299 22.5 21.0965 21.644 22.6202 20.1202C24.144 18.5965 25 16.5299 25 14.375C25 12.2201 24.144 10.1535 22.6202 8.62976C21.0965 7.10602 19.0299 6.25 16.875 6.25ZM3.75 30C3.75 28.6739 4.27678 27.4021 5.21447 26.4645C6.15215 25.5268 7.42392 25 8.75 25H25C25.8706 24.9993 26.7264 25.2259 27.4825 25.6575C26.79 26.2325 26.155 26.8725 25.5875 27.57C25.3951 27.5236 25.1979 27.5001 25 27.5H8.75C8.08696 27.5 7.45107 27.7634 6.98223 28.2322C6.51339 28.7011 6.25 29.337 6.25 30V30.195L6.2675 30.4025C6.40296 31.6009 6.83046 32.7478 7.5125 33.7425C8.73 35.5025 11.2825 37.5 16.875 37.5C19.26 37.5 21.0925 37.1375 22.505 36.5825C22.525 37.4575 22.6275 38.3075 22.805 39.1325C21.1925 39.675 19.24 40 16.875 40C10.5925 40 7.2075 37.7 5.455 35.165C4.53206 33.8207 3.95658 32.2686 3.78 30.6475C3.76506 30.502 3.75506 30.3561 3.75 30.21V30ZM32.5 16.25C32.5 15.2554 32.8951 14.3016 33.5983 13.5983C34.3016 12.8951 35.2554 12.5 36.25 12.5C37.2446 12.5 38.1984 12.8951 38.9016 13.5983C39.6049 14.3016 40 15.2554 40 16.25C40 17.2446 39.6049 18.1984 38.9016 18.9017C38.1984 19.6049 37.2446 20 36.25 20C35.2554 20 34.3016 19.6049 33.5983 18.9017C32.8951 18.1984 32.5 17.2446 32.5 16.25ZM36.25 10C34.5924 10 33.0027 10.6585 31.8306 11.8306C30.6585 13.0027 30 14.5924 30 16.25C30 17.9076 30.6585 19.4973 31.8306 20.6694C33.0027 21.8415 34.5924 22.5 36.25 22.5C37.9076 22.5 39.4973 21.8415 40.6694 20.6694C41.8415 19.4973 42.5 17.9076 42.5 16.25C42.5 14.5924 41.8415 13.0027 40.6694 11.8306C39.4973 10.6585 37.9076 10 36.25 10ZM47.5 36.25C47.5 39.2337 46.3147 42.0952 44.2049 44.2049C42.0952 46.3147 39.2337 47.5 36.25 47.5C33.2663 47.5 30.4048 46.3147 28.295 44.2049C26.1853 42.0952 25 39.2337 25 36.25C25 33.2663 26.1853 30.4048 28.295 28.295C30.4048 26.1853 33.2663 25 36.25 25C39.2337 25 42.0952 26.1853 44.2049 28.295C46.3147 30.4048 47.5 33.2663 47.5 36.25ZM37.5 31.25C37.5 30.9185 37.3683 30.6005 37.1339 30.3661C36.8995 30.1317 36.5815 30 36.25 30C35.9185 30 35.6005 30.1317 35.3661 30.3661C35.1317 30.6005 35 30.9185 35 31.25V35H31.25C30.9185 35 30.6005 35.1317 30.3661 35.3661C30.1317 35.6005 30 35.9185 30 36.25C30 36.5815 30.1317 36.8995 30.3661 37.1339C30.6005 37.3683 30.9185 37.5 31.25 37.5H35V41.25C35 41.5815 35.1317 41.8995 35.3661 42.1339C35.6005 42.3683 35.9185 42.5 36.25 42.5C36.5815 42.5 36.8995 42.3683 37.1339 42.1339C37.3683 41.8995 37.5 41.5815 37.5 41.25V37.5H41.25C41.5815 37.5 41.8995 37.3683 42.1339 37.1339C42.3683 36.8995 42.5 36.5815 42.5 36.25C42.5 35.9185 42.3683 35.6005 42.1339 35.3661C41.8995 35.1317 41.5815 35 41.25 35H37.5V31.25Z" fill="#252525"/>
</svg>