<svg xmlns="http://www.w3.org/2000/svg" width="34" height="34" viewBox="0 0 40 40" fill="none">
  <g clip-path="url(#clip0_266_72)">
    <path d="M11.6665 20L16.6665 25L28.3332 13.3333M33.3332 25C31.6665 26.6667 35.4165 31.25 33.3332 33.3333C31.2498 35.4167 26.6665 31.6667 24.9998 33.3333C23.3332 35 22.4998 38.3333 19.9998 38.3333C17.4998 38.3333 16.6665 35 14.9998 33.3333C13.3332 31.6667 8.74984 35.4167 6.6665 33.3333C4.58317 31.25 8.33317 26.6667 6.6665 25C4.99984 23.3333 1.6665 22.5 1.6665 20C1.6665 17.5 4.99984 16.6667 6.6665 15C8.33317 13.3333 4.58317 8.74999 6.6665 6.66666C8.74984 4.58332 13.3332 8.33332 14.9998 6.66666C16.6665 4.99999 17.4998 1.66666 19.9998 1.66666C22.4998 1.66666 23.3332 4.99999 24.9998 6.66666C26.6665 8.33332 31.2498 4.58332 33.3332 6.66666C35.4165 8.74999 31.6665 13.3333 33.3332 15C34.9998 16.6667 38.3332 17.5 38.3332 20C38.3332 22.5 34.9998 23.3333 33.3332 25Z" stroke="#111111" stroke-width="3"/>
  </g>
  <defs>
    <clipPath id="clip0_266_72">
      <rect width="40" height="40" fill="red"/>
    </clipPath>
  </defs>
</svg>