<svg width="50" height="50" viewBox="0 0 30 30" fill="none" xmlns="http://www.w3.org/2000/svg">
<g id="mdi:register-outline">
<path id="Vector" d="M18.75 5C17.4239 5 16.1521 5.52678 15.2145 6.46447C14.2768 7.40215 13.75 8.67392 13.75 10C13.75 11.3261 14.2768 12.5979 15.2145 13.5355C16.1521 14.4732 17.4239 15 18.75 15C20.0761 15 21.3479 14.4732 22.2855 13.5355C23.2232 12.5979 23.75 11.3261 23.75 10C23.75 8.67392 23.2232 7.40215 22.2855 6.46447C21.3479 5.52678 20.0761 5 18.75 5ZM18.75 7.375C19.0947 7.375 19.4361 7.4429 19.7545 7.57482C20.073 7.70673 20.3624 7.90009 20.6062 8.14384C20.8499 8.3876 21.0433 8.67698 21.1752 8.99546C21.3071 9.31394 21.375 9.65528 21.375 10C21.375 10.3447 21.3071 10.6861 21.1752 11.0045C21.0433 11.323 20.8499 11.6124 20.6062 11.8562C20.3624 12.0999 20.073 12.2933 19.7545 12.4252C19.4361 12.5571 19.0947 12.625 18.75 12.625C18.4053 12.625 18.0639 12.5571 17.7455 12.4252C17.427 12.2933 17.1376 12.0999 16.8938 11.8562C16.6501 11.6124 16.4567 11.323 16.3248 11.0045C16.1929 10.6861 16.125 10.3447 16.125 10C16.125 9.30381 16.4016 8.63613 16.8938 8.14384C17.3861 7.65156 18.0538 7.375 18.75 7.375ZM5 8.75V12.5H1.25V15H5V18.75H7.5V15H11.25V12.5H7.5V8.75H5ZM18.75 16.25C15.4125 16.25 8.75 17.9125 8.75 21.25V25H28.75V21.25C28.75 17.9125 22.0875 16.25 18.75 16.25ZM18.75 18.625C22.4625 18.625 26.375 20.45 26.375 21.25V22.625H11.125V21.25C11.125 20.45 15 18.625 18.75 18.625Z" fill="#252525"/>
</g>
</svg>
