<svg width="43" height="43" viewBox="0 0 43 43" fill="none" xmlns="http://www.w3.org/2000/svg">
<path d="M34.9375 3.35938H12.0938C10.49 3.35938 8.95197 3.99645 7.81796 5.13046C6.68395 6.26447 6.04688 7.80252 6.04688 9.40625V37.625C6.04688 38.1596 6.25923 38.6723 6.63724 39.0503C7.01524 39.4283 7.52792 39.6406 8.0625 39.6406H32.25C32.7846 39.6406 33.2973 39.4283 33.6753 39.0503C34.0533 38.6723 34.2656 38.1596 34.2656 37.625C34.2656 37.0904 34.0533 36.5777 33.6753 36.1997C33.2973 35.8217 32.7846 35.6094 32.25 35.6094H10.0781V34.9375C10.0781 34.4029 10.2905 33.8902 10.6685 33.5122C11.0465 33.1342 11.5592 32.9219 12.0938 32.9219H34.9375C35.4721 32.9219 35.9848 32.7095 36.3628 32.3315C36.7408 31.9535 36.9531 31.4408 36.9531 30.9062V5.375C36.9531 4.84042 36.7408 4.32774 36.3628 3.94974C35.9848 3.57173 35.4721 3.35938 34.9375 3.35938ZM32.9219 28.8906H12.0938C11.407 28.8893 10.7251 29.0064 10.0781 29.2366V9.40625C10.0781 8.87167 10.2905 8.35899 10.6685 7.98099C11.0465 7.60298 11.5592 7.39062 12.0938 7.39062H32.9219V28.8906Z" fill="#252525"/>
</svg>
