<svg xmlns="http://www.w3.org/2000/svg" width="40" height="40" viewBox="0 0 40 40" fill="none">
  <g clip-path="url(#clip0_266_77)">
    <path d="M40.0005 15.7C40.0013 15.157 39.8583 14.6234 39.5861 14.1535C39.3138 13.6837 38.922 13.2943 38.4504 13.025L21.6004 3.025C21.1148 2.74167 20.5627 2.59238 20.0004 2.59238C19.4382 2.59238 18.8861 2.74167 18.4004 3.025L1.52545 13.025C1.05913 13.3017 0.672829 13.695 0.404517 14.1662C0.136206 14.6374 -0.00488281 15.1703 -0.00488281 15.7125C-0.00488281 16.2547 0.136206 16.7876 0.404517 17.2588C0.672829 17.73 1.05913 18.1233 1.52545 18.4L6.32545 21.2V28.225C6.32834 28.774 6.47244 29.3131 6.74389 29.7903C7.01535 30.2675 7.40502 30.6669 7.87545 30.95L18.5004 37.075C18.9748 37.3377 19.5082 37.4754 20.0504 37.4754C20.5927 37.4754 21.1261 37.3377 21.6004 37.075L32.2254 30.95C32.6959 30.6669 33.0856 30.2675 33.357 29.7903C33.6285 29.3131 33.7726 28.774 33.7754 28.225V21.125L36.8755 19.3V26.1H40.0005V15.7ZM30.6754 28.2L20.0004 34.35L9.45045 28.225V23.05L18.4004 28.375C18.8877 28.6534 19.4392 28.7999 20.0004 28.7999C20.5617 28.7999 21.1132 28.6534 21.6004 28.375L30.6504 22.975L30.6754 28.2ZM20.0004 25.675L3.12545 15.675L20.0004 5.65L36.8755 15.65L20.0004 25.675Z" fill="#252525"/>
  </g>
  <defs>
    <clipPath id="clip0_266_77">
      <rect width="40" height="40" fill="white"/>
    </clipPath>
  </defs>
</svg>