<svg width="25" height="25" viewBox="0 0 25 25" fill="none" xmlns="http://www.w3.org/2000/svg">
<g id="jam:home">
<path id="Vector" d="M20.8335 20.8333V9.51249L12.5002 4.51249L4.16683 9.51249V20.8333H8.3335V17.9687C8.3335 16.8637 8.77248 15.8039 9.55388 15.0225C10.3353 14.2411 11.3951 13.8021 12.5002 13.8021C13.6052 13.8021 14.665 14.2411 15.4464 15.0225C16.2278 15.8039 16.6668 16.8637 16.6668 17.9687V20.8333H20.8335ZM14.5835 22.9167V17.9687C14.5835 17.4162 14.364 16.8863 13.9733 16.4956C13.5826 16.1049 13.0527 15.8854 12.5002 15.8854C11.9476 15.8854 11.4177 16.1049 11.027 16.4956C10.6363 16.8863 10.4168 17.4162 10.4168 17.9687V22.9167H4.16683C3.6143 22.9167 3.08439 22.6972 2.69369 22.3065C2.30299 21.9158 2.0835 21.3859 2.0835 20.8333V9.51249C2.08349 9.15273 2.17665 8.7991 2.35391 8.48603C2.53116 8.17296 2.78646 7.91113 3.09495 7.72603L11.4283 2.72603C11.7521 2.53176 12.1226 2.42914 12.5002 2.42914C12.8778 2.42914 13.2483 2.53176 13.572 2.72603L21.9054 7.72603C22.2139 7.91113 22.4692 8.17296 22.6464 8.48603C22.8237 8.7991 22.9168 9.15273 22.9168 9.51249V20.8333C22.9168 21.3859 22.6973 21.9158 22.3066 22.3065C21.9159 22.6972 21.386 22.9167 20.8335 22.9167H14.5835Z" fill="white"/>
</g>
</svg>
