<svg width="30" height="30" viewBox="0 0 30 30" fill="none" xmlns="http://www.w3.org/2000/svg">
<g id="fluent:dock-row-20-regular">
<path id="Vector" d="M4.5 6C3.90326 6 3.33097 6.23705 2.90901 6.65901C2.48705 7.08097 2.25 7.65326 2.25 8.25V11.25C2.25 11.8467 2.48705 12.419 2.90901 12.841C3.33097 13.2629 3.90326 13.5 4.5 13.5H7.5C8.09674 13.5 8.66903 13.2629 9.09099 12.841C9.51295 12.419 9.75 11.8467 9.75 11.25V8.25C9.75 7.65326 9.51295 7.08097 9.09099 6.65901C8.66903 6.23705 8.09674 6 7.5 6H4.5ZM3.75 8.25C3.75 8.05109 3.82902 7.86032 3.96967 7.71967C4.11032 7.57902 4.30109 7.5 4.5 7.5H7.5C7.69891 7.5 7.88968 7.57902 8.03033 7.71967C8.17098 7.86032 8.25 8.05109 8.25 8.25V11.25C8.25 11.4489 8.17098 11.6397 8.03033 11.7803C7.88968 11.921 7.69891 12 7.5 12H4.5C4.30109 12 4.11032 11.921 3.96967 11.7803C3.82902 11.6397 3.75 11.4489 3.75 11.25V8.25ZM4.5 15C3.90326 15 3.33097 15.2371 2.90901 15.659C2.48705 16.081 2.25 16.6533 2.25 17.25V20.25C2.25 20.8467 2.48705 21.419 2.90901 21.841C3.33097 22.2629 3.90326 22.5 4.5 22.5H7.5C8.09674 22.5 8.66903 22.2629 9.09099 21.841C9.51295 21.419 9.75 20.8467 9.75 20.25V17.25C9.75 16.6533 9.51295 16.081 9.09099 15.659C8.66903 15.2371 8.09674 15 7.5 15H4.5ZM3.75 17.25C3.75 17.0511 3.82902 16.8603 3.96967 16.7197C4.11032 16.579 4.30109 16.5 4.5 16.5H7.5C7.69891 16.5 7.88968 16.579 8.03033 16.7197C8.17098 16.8603 8.25 17.0511 8.25 17.25V20.25C8.25 20.4489 8.17098 20.6397 8.03033 20.7803C7.88968 20.921 7.69891 21 7.5 21H4.5C4.30109 21 4.11032 20.921 3.96967 20.7803C3.82902 20.6397 3.75 20.4489 3.75 20.25V17.25ZM11.25 8.25C11.25 7.65326 11.4871 7.08097 11.909 6.65901C12.331 6.23705 12.9033 6 13.5 6H16.5C17.0967 6 17.669 6.23705 18.091 6.65901C18.5129 7.08097 18.75 7.65326 18.75 8.25V11.25C18.75 11.8467 18.5129 12.419 18.091 12.841C17.669 13.2629 17.0967 13.5 16.5 13.5H13.5C12.9033 13.5 12.331 13.2629 11.909 12.841C11.4871 12.419 11.25 11.8467 11.25 11.25V8.25ZM13.5 7.5C13.3011 7.5 13.1103 7.57902 12.9697 7.71967C12.829 7.86032 12.75 8.05109 12.75 8.25V11.25C12.75 11.4489 12.829 11.6397 12.9697 11.7803C13.1103 11.921 13.3011 12 13.5 12H16.5C16.6989 12 16.8897 11.921 17.0303 11.7803C17.171 11.6397 17.25 11.4489 17.25 11.25V8.25C17.25 8.05109 17.171 7.86032 17.0303 7.71967C16.8897 7.57902 16.6989 7.5 16.5 7.5H13.5ZM13.5 15C12.9033 15 12.331 15.2371 11.909 15.659C11.4871 16.081 11.25 16.6533 11.25 17.25V20.25C11.25 20.8467 11.4871 21.419 11.909 21.841C12.331 22.2629 12.9033 22.5 13.5 22.5H16.5C17.0967 22.5 17.669 22.2629 18.091 21.841C18.5129 21.419 18.75 20.8467 18.75 20.25V17.25C18.75 16.6533 18.5129 16.081 18.091 15.659C17.669 15.2371 17.0967 15 16.5 15H13.5ZM12.75 17.25C12.75 17.0511 12.829 16.8603 12.9697 16.7197C13.1103 16.579 13.3011 16.5 13.5 16.5H16.5C16.6989 16.5 16.8897 16.579 17.0303 16.7197C17.171 16.8603 17.25 17.0511 17.25 17.25V20.25C17.25 20.4489 17.171 20.6397 17.0303 20.7803C16.8897 20.921 16.6989 21 16.5 21H13.5C13.3011 21 13.1103 20.921 12.9697 20.7803C12.829 20.6397 12.75 20.4489 12.75 20.25V17.25ZM20.25 8.25C20.25 7.65326 20.4871 7.08097 20.909 6.65901C21.331 6.23705 21.9033 6 22.5 6H25.5C26.0967 6 26.669 6.23705 27.091 6.65901C27.5129 7.08097 27.75 7.65326 27.75 8.25V11.25C27.75 11.8467 27.5129 12.419 27.091 12.841C26.669 13.2629 26.0967 13.5 25.5 13.5H22.5C21.9033 13.5 21.331 13.2629 20.909 12.841C20.4871 12.419 20.25 11.8467 20.25 11.25V8.25ZM22.5 7.5C22.3011 7.5 22.1103 7.57902 21.9697 7.71967C21.829 7.86032 21.75 8.05109 21.75 8.25V11.25C21.75 11.4489 21.829 11.6397 21.9697 11.7803C22.1103 11.921 22.3011 12 22.5 12H25.5C25.6989 12 25.8897 11.921 26.0303 11.7803C26.171 11.6397 26.25 11.4489 26.25 11.25V8.25C26.25 8.05109 26.171 7.86032 26.0303 7.71967C25.8897 7.57902 25.6989 7.5 25.5 7.5H22.5ZM22.5 15C21.9033 15 21.331 15.2371 20.909 15.659C20.4871 16.081 20.25 16.6533 20.25 17.25V20.25C20.25 20.8467 20.4871 21.419 20.909 21.841C21.331 22.2629 21.9033 22.5 22.5 22.5H25.5C26.0967 22.5 26.669 22.2629 27.091 21.841C27.5129 21.419 27.75 20.8467 27.75 20.25V17.25C27.75 16.6533 27.5129 16.081 27.091 15.659C26.669 15.2371 26.0967 15 25.5 15H22.5ZM21.75 17.25C21.75 17.0511 21.829 16.8603 21.9697 16.7197C22.1103 16.579 22.3011 16.5 22.5 16.5H25.5C25.6989 16.5 25.8897 16.579 26.0303 16.7197C26.171 16.8603 26.25 17.0511 26.25 17.25V20.25C26.25 20.4489 26.171 20.6397 26.0303 20.7803C25.8897 20.921 25.6989 21 25.5 21H22.5C22.3011 21 22.1103 20.921 21.9697 20.7803C21.829 20.6397 21.75 20.4489 21.75 20.25V17.25Z" fill="white"/>
</g>
</svg>
