<svg width="25" height="25" viewBox="0 0 25 25" fill="none" xmlns="http://www.w3.org/2000/svg">
<g id="akar-icons:edit">
<g id="Group">
<path id="Vector" d="M17.1611 5.63327L19.3673 7.83848M18.5798 3.69057L12.6142 9.65619C12.306 9.964 12.0957 10.3562 12.01 10.7833L11.459 13.5416L14.2173 12.9895C14.6444 12.9041 15.0361 12.6947 15.3444 12.3864L21.31 6.42078C21.4893 6.24151 21.6315 6.02868 21.7285 5.79446C21.8255 5.56023 21.8755 5.30919 21.8755 5.05567C21.8755 4.80215 21.8255 4.55111 21.7285 4.31688C21.6315 4.08266 21.4893 3.86983 21.31 3.69057C21.1308 3.5113 20.9179 3.3691 20.6837 3.27208C20.4495 3.17506 20.1984 3.12512 19.9449 3.12512C19.6914 3.12512 19.4404 3.17506 19.2061 3.27208C18.9719 3.3691 18.7591 3.5113 18.5798 3.69057Z" stroke="#ffffff"  stroke-width="2.08333" stroke-linecap="round" stroke-linejoin="round"/>
<path id="Vector_2" d="M19.792 15.6249V18.7499C19.792 19.3025 19.5725 19.8324 19.1818 20.2231C18.7911 20.6138 18.2612 20.8333 17.7087 20.8333H6.25033C5.69779 20.8333 5.16789 20.6138 4.77719 20.2231C4.38649 19.8324 4.16699 19.3025 4.16699 18.7499V7.29159C4.16699 6.73905 4.38649 6.20915 4.77719 5.81845C5.16789 5.42775 5.69779 5.20825 6.25033 5.20825H9.37533" stroke="#ffffff"  stroke-width="2.08333" stroke-linecap="round" stroke-linejoin="round"/>
</g>
</g>
</svg>
