<svg width="30" height="30" viewBox="0 0 30 30" fill="none" xmlns="http://www.w3.org/2000/svg">
<g id="fluent:people-16-regular">
<path id="Vector" d="M7.5 10.3125C7.5 9.94316 7.57275 9.57743 7.71409 9.2362C7.85543 8.89497 8.0626 8.58493 8.32376 8.32376C8.58493 8.0626 8.89497 7.85543 9.2362 7.71409C9.57743 7.57275 9.94316 7.5 10.3125 7.5C10.6818 7.5 11.0476 7.57275 11.3888 7.71409C11.73 7.85543 12.0401 8.0626 12.3012 8.32376C12.5624 8.58493 12.7696 8.89497 12.9109 9.2362C13.0523 9.57743 13.125 9.94316 13.125 10.3125C13.125 11.0584 12.8287 11.7738 12.3012 12.3012C11.7738 12.8287 11.0584 13.125 10.3125 13.125C9.56658 13.125 8.85121 12.8287 8.32376 12.3012C7.79632 11.7738 7.5 11.0584 7.5 10.3125ZM10.3125 5.625C9.0693 5.625 7.87701 6.11886 6.99794 6.99794C6.11886 7.87701 5.625 9.0693 5.625 10.3125C5.625 11.5557 6.11886 12.748 6.99794 13.6271C7.87701 14.5061 9.0693 15 10.3125 15C11.5557 15 12.748 14.5061 13.6271 13.6271C14.5061 12.748 15 11.5557 15 10.3125C15 9.0693 14.5061 7.87701 13.6271 6.99794C12.748 6.11886 11.5557 5.625 10.3125 5.625ZM19.6875 11.25C19.6875 10.7527 19.885 10.2758 20.2367 9.92418C20.5883 9.57254 21.0652 9.375 21.5625 9.375C22.0598 9.375 22.5367 9.57254 22.8883 9.92418C23.24 10.2758 23.4375 10.7527 23.4375 11.25C23.4375 11.7473 23.24 12.2242 22.8883 12.5758C22.5367 12.9275 22.0598 13.125 21.5625 13.125C21.0652 13.125 20.5883 12.9275 20.2367 12.5758C19.885 12.2242 19.6875 11.7473 19.6875 11.25ZM21.5625 7.5C20.5679 7.5 19.6141 7.89509 18.9109 8.59835C18.2076 9.30161 17.8125 10.2554 17.8125 11.25C17.8125 12.2446 18.2076 13.1984 18.9109 13.9017C19.6141 14.6049 20.5679 15 21.5625 15C22.5571 15 23.5109 14.6049 24.2141 13.9017C24.9174 13.1984 25.3125 12.2446 25.3125 11.25C25.3125 10.2554 24.9174 9.30161 24.2141 8.59835C23.5109 7.89509 22.5571 7.5 21.5625 7.5ZM2.8125 19.6875C2.8125 18.9416 3.10882 18.2262 3.63626 17.6988C4.16371 17.1713 4.87908 16.875 5.625 16.875H15C15.7459 16.875 16.4613 17.1713 16.9887 17.6988C17.5162 18.2262 17.8125 18.9416 17.8125 19.6875V19.8975C17.8105 19.9834 17.8043 20.0691 17.7937 20.1544C17.6869 21.0634 17.3486 21.9297 16.8112 22.6706C15.7856 24.0862 13.8356 25.3125 10.3125 25.3125C6.79125 25.3125 4.84125 24.0862 3.81187 22.6706C3.27518 21.9295 2.93754 21.0632 2.83125 20.1544C2.82192 20.069 2.81566 19.9833 2.8125 19.8975V19.6875ZM4.6875 19.8563V19.8694L4.695 19.9612C4.76761 20.5417 4.9856 21.0944 5.32875 21.5681C5.94 22.4081 7.27125 23.4375 10.3125 23.4375C13.3537 23.4375 14.685 22.4081 15.2962 21.5681C15.6394 21.0944 15.8574 20.5417 15.93 19.9612C15.9334 19.9301 15.9359 19.8988 15.9375 19.8675V19.6875C15.9375 19.4389 15.8387 19.2004 15.6629 19.0246C15.4871 18.8488 15.2486 18.75 15 18.75H5.625C5.37636 18.75 5.1379 18.8488 4.96209 19.0246C4.78627 19.2004 4.6875 19.4389 4.6875 19.6875V19.8563ZM21.5625 23.4375C20.46 23.4375 19.5562 23.2688 18.825 22.9913C19.1256 22.4406 19.3531 21.8532 19.5019 21.2437C20.0044 21.4331 20.6719 21.5625 21.5625 21.5625C23.6606 21.5625 24.5212 20.8462 24.9 20.3137C25.1214 20.0032 25.2619 19.6423 25.3088 19.2638L25.3125 19.2113C25.3105 19.0882 25.2603 18.9709 25.1726 18.8846C25.0849 18.7983 24.9668 18.75 24.8438 18.75H19.5937C19.4553 18.0701 19.1671 17.4295 18.75 16.875H24.8438C26.1375 16.875 27.1875 17.925 27.1875 19.2188V19.2506C27.1853 19.3189 27.1803 19.3871 27.1725 19.455C27.0931 20.1577 26.8363 20.8288 26.4262 21.405C25.635 22.5131 24.1519 23.4375 21.5625 23.4375Z" fill="white"/>
</g>
</svg>
