<svg width="22" height="22" viewBox="0 0 22 22" fill="none" xmlns="http://www.w3.org/2000/svg">
<g id="fluent:people-24-filled">
<path id="Vector" d="M7.3335 11C8.30596 11 9.23859 10.6137 9.92622 9.92603C10.6139 9.2384 11.0002 8.30577 11.0002 7.33331C11.0002 6.36085 10.6139 5.42822 9.92622 4.74058C9.23859 4.05295 8.30596 3.66664 7.3335 3.66664C6.36104 3.66664 5.4284 4.05295 4.74077 4.74058C4.05314 5.42822 3.66683 6.36085 3.66683 7.33331C3.66683 8.30577 4.05314 9.2384 4.74077 9.92603C5.4284 10.6137 6.36104 11 7.3335 11ZM15.5835 11C16.3128 11 17.0123 10.7102 17.528 10.1945C18.0438 9.67879 18.3335 8.97932 18.3335 8.24997C18.3335 7.52063 18.0438 6.82116 17.528 6.30543C17.0123 5.78971 16.3128 5.49997 15.5835 5.49997C14.8541 5.49997 14.1547 5.78971 13.639 6.30543C13.1232 6.82116 12.8335 7.52063 12.8335 8.24997C12.8335 8.97932 13.1232 9.67879 13.639 10.1945C14.1547 10.7102 14.8541 11 15.5835 11ZM3.896 12.8333C3.34899 12.8333 2.82438 13.0506 2.43759 13.4374C2.05079 13.8242 1.8335 14.3488 1.8335 14.8958V15.125C1.8335 15.125 1.8335 19.25 7.3335 19.25C12.8335 19.25 12.8335 15.125 12.8335 15.125V14.8958C12.8335 14.3488 12.6162 13.8242 12.2294 13.4374C11.8426 13.0506 11.318 12.8333 10.771 12.8333H3.896ZM15.5835 17.875C14.5101 17.875 13.6878 17.7091 13.0581 17.4551C13.4246 16.8366 13.6546 16.1468 13.7327 15.4321C13.7417 15.3452 13.7475 15.2581 13.7502 15.1708V14.8958C13.7513 14.1279 13.455 13.3893 12.9233 12.8351C12.9545 12.8338 12.9857 12.8332 13.0168 12.8333H18.1502C18.685 12.8333 19.198 13.0458 19.5762 13.424C19.9544 13.8022 20.1668 14.3151 20.1668 14.85C20.1668 14.85 20.1668 17.875 15.5835 17.875Z" fill="#7E3AF2"/>
</g>
</svg>
