<svg width="27" height="27" viewBox="0 0 27 27" fill="none" xmlns="http://www.w3.org/2000/svg">
<path d="M12.2345 13.5C12.2345 13.8357 12.3679 14.1576 12.6052 14.3949C12.8426 14.6323 13.1645 14.7656 13.5001 14.7656C13.8358 14.7656 14.1577 14.6323 14.3951 14.3949C14.6324 14.1576 14.7658 13.8357 14.7658 13.5C14.7658 13.1643 14.6324 12.8424 14.3951 12.6051C14.1577 12.3677 13.8358 12.2344 13.5001 12.2344C13.1645 12.2344 12.8426 12.3677 12.6052 12.6051C12.3679 12.8424 12.2345 13.1643 12.2345 13.5ZM17.508 13.5C17.508 13.8357 17.6413 14.1576 17.8787 14.3949C18.116 14.6323 18.4379 14.7656 18.7736 14.7656C19.1093 14.7656 19.4312 14.6323 19.6685 14.3949C19.9059 14.1576 20.0392 13.8357 20.0392 13.5C20.0392 13.1643 19.9059 12.8424 19.6685 12.6051C19.4312 12.3677 19.1093 12.2344 18.7736 12.2344C18.4379 12.2344 18.116 12.3677 17.8787 12.6051C17.6413 12.8424 17.508 13.1643 17.508 13.5ZM6.96109 13.5C6.96109 13.8357 7.09443 14.1576 7.33178 14.3949C7.56913 14.6323 7.89105 14.7656 8.22671 14.7656C8.56238 14.7656 8.88429 14.6323 9.12164 14.3949C9.35899 14.1576 9.49234 13.8357 9.49234 13.5C9.49234 13.1643 9.35899 12.8424 9.12164 12.6051C8.88429 12.3677 8.56238 12.2344 8.22671 12.2344C7.89105 12.2344 7.56913 12.3677 7.33178 12.6051C7.09443 12.8424 6.96109 13.1643 6.96109 13.5ZM24.3951 8.92266C23.7992 7.50674 22.9449 6.23584 21.8559 5.14424C20.7746 4.05896 19.4909 3.19629 18.0775 2.60508C16.6273 1.996 15.0875 1.6875 13.5001 1.6875H13.4474C11.8496 1.69541 10.3018 2.01182 8.84634 2.63408C7.44508 3.23135 6.1734 4.09556 5.1022 5.17852C4.02378 6.26748 3.1774 7.53311 2.59204 8.94375C1.9856 10.4045 1.67974 11.9575 1.68765 13.5554C1.6966 15.3865 2.12981 17.1906 2.95327 18.8262V22.834C2.95327 23.1557 3.08106 23.4642 3.30852 23.6916C3.53598 23.9191 3.84449 24.0469 4.16617 24.0469H8.17661C9.81216 24.8703 11.6163 25.3036 13.4474 25.3125H13.5028C15.0822 25.3125 16.6141 25.0066 18.0564 24.4081C19.4626 23.8239 20.7415 22.9713 21.8216 21.8979C22.9106 20.8195 23.7675 19.5592 24.3661 18.1538C24.9883 16.6983 25.3047 15.1506 25.3126 13.5527C25.3206 11.947 25.0094 10.3887 24.3951 8.92266ZM20.411 20.4715C18.5626 22.3014 16.1105 23.3086 13.5001 23.3086H13.4553C11.8654 23.3007 10.286 22.9052 8.89117 22.1616L8.66968 22.043H4.95718V18.3305L4.83853 18.109C4.09497 16.7142 3.69947 15.1348 3.69156 13.5448C3.68101 10.916 4.6856 8.44805 6.52867 6.58916C8.3691 4.73027 10.8292 3.70195 13.458 3.69141H13.5028C14.8211 3.69141 16.1 3.94717 17.3049 4.45342C18.4809 4.94648 19.5356 5.65576 20.4426 6.56279C21.347 7.46719 22.0589 8.52451 22.552 9.70049C23.0635 10.9187 23.3193 12.2106 23.314 13.5448C23.2982 16.171 22.2672 18.6311 20.411 20.4715Z" fill="white" stroke="white" stroke-width="0.4"/>
</svg>
