<svg width="184" height="25" viewBox="0 0 184 25" fill="none" xmlns="http://www.w3.org/2000/svg">
<path d="M39.1 24.1C38.6333 24.1 38.2 24.0333 37.8 23.9C36.5333 23.6333 35.6333 22.8667 35.1 21.6C34.7 20.4667 34.8 19.2 35.4 17.8C36.0667 16.4 36.9333 14.8333 38 13.1C38.4 12.5 38.7667 11.9 39.1 11.3C39.5 10.6333 39.8333 10.0333 40.1 9.5C40.2333 9.3 40.3333 9.13333 40.4 9C40.4667 8.8 40.5333 8.63333 40.6 8.5C38.6 8.16667 36.2667 8.1 33.6 8.3C31 8.43333 28.0667 8.93333 24.8 9.8C21.9333 10.5333 18.8333 11.5 15.5 12.7C12.2333 13.8333 8.76667 15.2 5.1 16.8C4.36667 17.0667 3.63333 17.0667 2.9 16.8C2.16667 16.5333 1.63333 16.0333 1.3 15.3C0.9 14.5667 0.866667 13.8 1.2 13C1.53333 12.1333 2.06667 11.5667 2.8 11.3C6.53333 9.63333 10.1 8.2 13.5 7C16.9667 5.73333 20.2333 4.73333 23.3 4C31.5 1.93333 38.2 1.6 43.4 3C44.9333 3.4 46 4.33333 46.6 5.8C47.2 7.26667 47.0667 8.9 46.2 10.7C45.3333 12.5 44.3 14.3667 43.1 16.3C43.0333 16.4333 42.9333 16.6 42.8 16.8C42.6667 17 42.5333 17.2333 42.4 17.5C43.9333 17.1667 46.2 16.5 49.2 15.5C52.2 14.5 56.3333 13.0333 61.6 11.1C62.3333 10.8333 63.0667 10.9 63.8 11.3C64.6 11.6333 65.1333 12.2 65.4 13C65.7333 13.7333 65.7333 14.5 65.4 15.3C65.0667 16.0333 64.4667 16.5667 63.6 16.9C60.5333 17.9667 57.7333 18.9333 55.2 19.8C52.6667 20.6667 50.4 21.4 48.4 22C45.7333 22.8 43.7 23.3667 42.3 23.7C40.9 23.9667 39.8333 24.1 39.1 24.1ZM97.9867 24.1C97.5201 24.1 97.0867 24.0333 96.6867 23.9C95.4201 23.6333 94.5201 22.8667 93.9867 21.6C93.5867 20.4667 93.6867 19.2 94.2867 17.8C94.9534 16.4 95.8201 14.8333 96.8867 13.1C97.2867 12.5 97.6534 11.9 97.9867 11.3C98.3867 10.6333 98.7201 10.0333 98.9867 9.5C99.1201 9.3 99.2201 9.13333 99.2867 9C99.3534 8.8 99.4201 8.63333 99.4867 8.5C97.4867 8.16667 95.1534 8.1 92.4867 8.3C89.8867 8.43333 86.9534 8.93333 83.6867 9.8C80.8201 10.5333 77.7201 11.5 74.3867 12.7C71.1201 13.8333 67.6534 15.2 63.9867 16.8C63.2534 17.0667 62.5201 17.0667 61.7867 16.8C61.0534 16.5333 60.5201 16.0333 60.1867 15.3C59.7867 14.5667 59.7534 13.8 60.0867 13C60.4201 12.1333 60.9534 11.5667 61.6867 11.3C65.4201 9.63333 68.9867 8.2 72.3867 7C75.8534 5.73333 79.1201 4.73333 82.1867 4C90.3867 1.93333 97.0867 1.6 102.287 3C103.82 3.4 104.887 4.33333 105.487 5.8C106.087 7.26667 105.953 8.9 105.087 10.7C104.22 12.5 103.187 14.3667 101.987 16.3C101.92 16.4333 101.82 16.6 101.687 16.8C101.553 17 101.42 17.2333 101.287 17.5C102.82 17.1667 105.087 16.5 108.087 15.5C111.087 14.5 115.22 13.0333 120.487 11.1C121.22 10.8333 121.953 10.9 122.687 11.3C123.487 11.6333 124.02 12.2 124.287 13C124.62 13.7333 124.62 14.5 124.287 15.3C123.953 16.0333 123.353 16.5667 122.487 16.9C119.42 17.9667 116.62 18.9333 114.087 19.8C111.553 20.6667 109.287 21.4 107.287 22C104.62 22.8 102.587 23.3667 101.187 23.7C99.7867 23.9667 98.7201 24.1 97.9867 24.1ZM156.873 24.1C156.407 24.1 155.973 24.0333 155.573 23.9C154.307 23.6333 153.407 22.8667 152.873 21.6C152.473 20.4667 152.573 19.2 153.173 17.8C153.84 16.4 154.707 14.8333 155.773 13.1C156.173 12.5 156.54 11.9 156.873 11.3C157.273 10.6333 157.607 10.0333 157.873 9.5C158.007 9.3 158.107 9.13333 158.173 9C158.24 8.8 158.307 8.63333 158.373 8.5C156.373 8.16667 154.04 8.1 151.373 8.3C148.773 8.43333 145.84 8.93333 142.573 9.8C139.707 10.5333 136.607 11.5 133.273 12.7C130.007 13.8333 126.54 15.2 122.873 16.8C122.14 17.0667 121.407 17.0667 120.673 16.8C119.94 16.5333 119.407 16.0333 119.073 15.3C118.673 14.5667 118.64 13.8 118.973 13C119.307 12.1333 119.84 11.5667 120.573 11.3C124.307 9.63333 127.873 8.2 131.273 7C134.74 5.73333 138.007 4.73333 141.073 4C149.273 1.93333 155.973 1.6 161.173 3C162.707 3.4 163.773 4.33333 164.373 5.8C164.973 7.26667 164.84 8.9 163.973 10.7C163.107 12.5 162.073 14.3667 160.873 16.3C160.807 16.4333 160.707 16.6 160.573 16.8C160.44 17 160.307 17.2333 160.173 17.5C161.707 17.1667 163.973 16.5 166.973 15.5C169.973 14.5 174.107 13.0333 179.373 11.1C180.107 10.8333 180.84 10.9 181.573 11.3C182.373 11.6333 182.907 12.2 183.173 13C183.507 13.7333 183.507 14.5 183.173 15.3C182.84 16.0333 182.24 16.5667 181.373 16.9C178.307 17.9667 175.507 18.9333 172.973 19.8C170.44 20.6667 168.173 21.4 166.173 22C163.507 22.8 161.473 23.3667 160.073 23.7C158.673 23.9667 157.607 24.1 156.873 24.1Z" fill="#7D7D7D"/>
</svg>
