<svg width="225" height="24" viewBox="0 0 225 24" fill="none" xmlns="http://www.w3.org/2000/svg">
<path d="M73.75 7.125C73.75 5.86522 74.2504 4.65704 75.1412 3.76624C76.032 2.87545 77.2402 2.375 78.5 2.375C79.7598 2.375 80.968 2.87545 81.8588 3.76624C82.7496 4.65704 83.25 5.86522 83.25 7.125V11.875C83.25 13.1348 82.7496 14.343 81.8588 15.2338C80.968 16.1246 79.7598 16.625 78.5 16.625C77.2402 16.625 76.032 16.1246 75.1412 15.2338C74.2504 14.343 73.75 13.1348 73.75 11.875V7.125Z" stroke="#5B5B5B" stroke-width="1.5" stroke-linejoin="round"/>
<path d="M78.5 5.54167V8.70834" stroke="#5B5B5B" stroke-width="1.5" stroke-linecap="round" stroke-linejoin="round"/>
<line x1="1.98374" y1="9.984" x2="61.984" y2="9.01626" stroke="#5B5B5B" stroke-width="2" stroke-linecap="round"/>
<path d="M154.984 8.00013C154.432 8.00904 153.991 8.46391 154 9.01613C154.009 9.56834 154.464 10.0088 155.016 9.99987L154.984 8.00013ZM155.016 9.99987L217.016 8.99987L216.984 7.00013L154.984 8.00013L155.016 9.99987Z" fill="#5B5B5B"/>
<path d="M216.293 23.7071C216.683 24.0976 217.317 24.0976 217.707 23.7071L224.071 17.3431C224.462 16.9526 224.462 16.3195 224.071 15.9289C223.681 15.5384 223.047 15.5384 222.657 15.9289L217 21.5858L211.343 15.9289C210.953 15.5384 210.319 15.5384 209.929 15.9289C209.538 16.3195 209.538 16.9526 209.929 17.3431L216.293 23.7071ZM218 8V7H216V8H218ZM218 23V8H216V23H218Z" fill="#5B5B5B"/>
<path d="M95.1 12.07C94.6133 12.07 94.1733 11.9867 93.78 11.82C93.3933 11.6533 93.0867 11.4133 92.86 11.1C92.6333 10.7867 92.5167 10.4167 92.51 9.99H94.01C94.03 10.2767 94.13 10.5033 94.31 10.67C94.4967 10.8367 94.75 10.92 95.07 10.92C95.3967 10.92 95.6533 10.8433 95.84 10.69C96.0267 10.53 96.12 10.3233 96.12 10.07C96.12 9.86333 96.0567 9.69333 95.93 9.56C95.8033 9.42667 95.6433 9.32333 95.45 9.25C95.2633 9.17 95.0033 9.08333 94.67 8.99C94.2167 8.85667 93.8467 8.72667 93.56 8.6C93.28 8.46667 93.0367 8.27 92.83 8.01C92.63 7.74333 92.53 7.39 92.53 6.95C92.53 6.53667 92.6333 6.17667 92.84 5.87C93.0467 5.56333 93.3367 5.33 93.71 5.17C94.0833 5.00333 94.51 4.92 94.99 4.92C95.71 4.92 96.2933 5.09667 96.74 5.45C97.1933 5.79667 97.4433 6.28333 97.49 6.91H95.95C95.9367 6.67 95.8333 6.47333 95.64 6.32C95.4533 6.16 95.2033 6.08 94.89 6.08C94.6167 6.08 94.3967 6.15 94.23 6.29C94.07 6.43 93.99 6.63333 93.99 6.9C93.99 7.08667 94.05 7.24333 94.17 7.37C94.2967 7.49 94.45 7.59 94.63 7.67C94.8167 7.74333 95.0767 7.83 95.41 7.93C95.8633 8.06333 96.2333 8.19667 96.52 8.33C96.8067 8.46333 97.0533 8.66333 97.26 8.93C97.4667 9.19667 97.57 9.54667 97.57 9.98C97.57 10.3533 97.4733 10.7 97.28 11.02C97.0867 11.34 96.8033 11.5967 96.43 11.79C96.0567 11.9767 95.6133 12.07 95.1 12.07ZM98.4237 9.23C98.4237 8.65667 98.5404 8.15667 98.7738 7.73C99.0071 7.29667 99.3304 6.96333 99.7438 6.73C100.157 6.49 100.63 6.37 101.164 6.37C101.85 6.37 102.417 6.54333 102.864 6.89C103.317 7.23 103.62 7.71 103.774 8.33H102.264C102.184 8.09 102.047 7.90333 101.854 7.77C101.667 7.63 101.434 7.56 101.154 7.56C100.754 7.56 100.437 7.70667 100.204 8C99.9704 8.28667 99.8538 8.69667 99.8538 9.23C99.8538 9.75667 99.9704 10.1667 100.204 10.46C100.437 10.7467 100.754 10.89 101.154 10.89C101.72 10.89 102.09 10.6367 102.264 10.13H103.774C103.62 10.73 103.317 11.2067 102.864 11.56C102.41 11.9133 101.844 12.09 101.164 12.09C100.63 12.09 100.157 11.9733 99.7438 11.74C99.3304 11.5 99.0071 11.1667 98.7738 10.74C98.5404 10.3067 98.4237 9.80333 98.4237 9.23ZM106.199 7.32C106.379 7.02667 106.613 6.79667 106.899 6.63C107.193 6.46333 107.526 6.38 107.899 6.38V7.85H107.529C107.089 7.85 106.756 7.95333 106.529 8.16C106.309 8.36667 106.199 8.72667 106.199 9.24V12H104.799V6.46H106.199V7.32ZM111.302 12.09C110.769 12.09 110.289 11.9733 109.862 11.74C109.436 11.5 109.099 11.1633 108.852 10.73C108.612 10.2967 108.492 9.79667 108.492 9.23C108.492 8.66333 108.616 8.16333 108.862 7.73C109.116 7.29667 109.459 6.96333 109.892 6.73C110.326 6.49 110.809 6.37 111.342 6.37C111.876 6.37 112.359 6.49 112.792 6.73C113.226 6.96333 113.566 7.29667 113.812 7.73C114.066 8.16333 114.192 8.66333 114.192 9.23C114.192 9.79667 114.062 10.2967 113.802 10.73C113.549 11.1633 113.202 11.5 112.762 11.74C112.329 11.9733 111.842 12.09 111.302 12.09ZM111.302 10.87C111.556 10.87 111.792 10.81 112.012 10.69C112.239 10.5633 112.419 10.3767 112.552 10.13C112.686 9.88333 112.752 9.58333 112.752 9.23C112.752 8.70333 112.612 8.3 112.332 8.02C112.059 7.73333 111.722 7.59 111.322 7.59C110.922 7.59 110.586 7.73333 110.312 8.02C110.046 8.3 109.912 8.70333 109.912 9.23C109.912 9.75667 110.042 10.1633 110.302 10.45C110.569 10.73 110.902 10.87 111.302 10.87ZM116.619 4.6V12H115.219V4.6H116.619ZM119.403 4.6V12H118.003V4.6H119.403ZM125.609 5.02C126.342 5.02 126.985 5.16333 127.539 5.45C128.099 5.73667 128.529 6.14667 128.829 6.68C129.135 7.20667 129.289 7.82 129.289 8.52C129.289 9.22 129.135 9.83333 128.829 10.36C128.529 10.88 128.099 11.2833 127.539 11.57C126.985 11.8567 126.342 12 125.609 12H123.169V5.02H125.609ZM125.559 10.81C126.292 10.81 126.859 10.61 127.259 10.21C127.659 9.81 127.859 9.24667 127.859 8.52C127.859 7.79333 127.659 7.22667 127.259 6.82C126.859 6.40667 126.292 6.2 125.559 6.2H124.569V10.81H125.559ZM132.796 12.09C132.263 12.09 131.783 11.9733 131.356 11.74C130.93 11.5 130.593 11.1633 130.346 10.73C130.106 10.2967 129.986 9.79667 129.986 9.23C129.986 8.66333 130.11 8.16333 130.356 7.73C130.61 7.29667 130.953 6.96333 131.386 6.73C131.82 6.49 132.303 6.37 132.836 6.37C133.37 6.37 133.853 6.49 134.286 6.73C134.72 6.96333 135.06 7.29667 135.306 7.73C135.56 8.16333 135.686 8.66333 135.686 9.23C135.686 9.79667 135.556 10.2967 135.296 10.73C135.043 11.1633 134.696 11.5 134.256 11.74C133.823 11.9733 133.336 12.09 132.796 12.09ZM132.796 10.87C133.05 10.87 133.286 10.81 133.506 10.69C133.733 10.5633 133.913 10.3767 134.046 10.13C134.18 9.88333 134.246 9.58333 134.246 9.23C134.246 8.70333 134.106 8.3 133.826 8.02C133.553 7.73333 133.216 7.59 132.816 7.59C132.416 7.59 132.08 7.73333 131.806 8.02C131.54 8.3 131.406 8.70333 131.406 9.23C131.406 9.75667 131.536 10.1633 131.796 10.45C132.063 10.73 132.396 10.87 132.796 10.87ZM144.393 6.46L142.773 12H141.263L140.253 8.13L139.243 12H137.723L136.093 6.46H137.513L138.493 10.68L139.553 6.46H141.033L142.073 10.67L143.053 6.46H144.393ZM148.221 6.38C148.881 6.38 149.414 6.59 149.821 7.01C150.228 7.42333 150.431 8.00333 150.431 8.75V12H149.031V8.94C149.031 8.5 148.921 8.16333 148.701 7.93C148.481 7.69 148.181 7.57 147.801 7.57C147.414 7.57 147.108 7.69 146.881 7.93C146.661 8.16333 146.551 8.5 146.551 8.94V12H145.151V6.46H146.551V7.15C146.738 6.91 146.974 6.72333 147.261 6.59C147.554 6.45 147.874 6.38 148.221 6.38Z" fill="#5B5B5B"/>
</svg>
