<svg width="26" height="26" viewBox="0 0 26 26" fill="none" xmlns="http://www.w3.org/2000/svg">
<g id="wpf:survey" clip-path="url(#clip0_333_2)">
<path id="Vector" d="M8.813 7.55768e-07C8.58133 0.0440632 8.37268 0.168583 8.22392 0.351564C8.07516 0.534545 7.99585 0.764214 8 1V2H4.406C3.606 2 3 2.606 3 3.406V24.5C3 25.4 3.606 26 4.406 26H21.5C22.3 26 22.906 25.394 22.906 24.594V3.406C23.006 2.606 22.394 2 21.594 2H18V1C18 0.734784 17.8946 0.48043 17.7071 0.292894C17.5196 0.105358 17.2652 7.55768e-07 17 7.55768e-07H9C8.96868 -0.00147273 8.93732 -0.00147273 8.906 7.55768e-07C8.87468 -0.00147273 8.84432 -0.00147273 8.813 7.55768e-07ZM10 2H16V4H10V2ZM5 4H8V5C8 5.26522 8.10536 5.51957 8.29289 5.70711C8.48043 5.89464 8.73478 6 9 6H17C17.2652 6 17.5196 5.89464 17.7071 5.70711C17.8946 5.51957 18 5.26522 18 5V4H21V24H5V4ZM7 9V13H11V9H7ZM8 10H10V12H8V10ZM13 10V12H19V10H13ZM7 15V19H11V15H7ZM13 16V18H19V16H13Z" fill="#252525"/>
</g>
<defs>
<clipPath id="clip0_333_2">
<rect width="26" height="26" fill="rgba(0,0,0,0.7)"/>
</clipPath>
</defs>
</svg>
