<svg width="28" height="28" viewBox="0 0 28 28" fill="none" xmlns="http://www.w3.org/2000/svg">
<g id="tabler:search">
<path id="Vector" d="M24.5 24.5L17.5 17.5M3.5 11.6667C3.5 12.7391 3.71124 13.8011 4.12165 14.7919C4.53206 15.7827 5.13362 16.683 5.89196 17.4414C6.65031 18.1997 7.55059 18.8013 8.54142 19.2117C9.53224 19.6221 10.5942 19.8333 11.6667 19.8333C12.7391 19.8333 13.8011 19.6221 14.7919 19.2117C15.7827 18.8013 16.683 18.1997 17.4414 17.4414C18.1997 16.683 18.8013 15.7827 19.2117 14.7919C19.6221 13.8011 19.8333 12.7391 19.8333 11.6667C19.8333 10.5942 19.6221 9.53224 19.2117 8.54142C18.8013 7.55059 18.1997 6.65031 17.4414 5.89196C16.683 5.13362 15.7827 4.53206 14.7919 4.12165C13.8011 3.71124 12.7391 3.5 11.6667 3.5C10.5942 3.5 9.53224 3.71124 8.54142 4.12165C7.55059 4.53206 6.65031 5.13362 5.89196 5.89196C5.13362 6.65031 4.53206 7.55059 4.12165 8.54142C3.71124 9.53224 3.5 10.5942 3.5 11.6667Z" stroke="#565656" stroke-width="2.08333" stroke-linecap="round" stroke-linejoin="round"/>
</g>
</svg>
