<svg width="25" height="25" viewBox="0 0 25 25" fill="none" xmlns="http://www.w3.org/2000/svg">
<g id="solar:menu-dots-bold">
<path id="o" d="M7.29167 12.5C7.29167 13.0526 7.07217 13.5825 6.68147 13.9732C6.29077 14.3639 5.76087 14.5834 5.20833 14.5834C4.6558 14.5834 4.12589 14.3639 3.73519 13.9732C3.34449 13.5825 3.125 13.0526 3.125 12.5C3.125 11.9475 3.34449 11.4176 3.73519 11.0269C4.12589 10.6362 4.6558 10.4167 5.20833 10.4167C5.76087 10.4167 6.29077 10.6362 6.68147 11.0269C7.07217 11.4176 7.29167 11.9475 7.29167 12.5ZM14.5833 12.5C14.5833 13.0526 14.3638 13.5825 13.9731 13.9732C13.5824 14.3639 13.0525 14.5834 12.5 14.5834C11.9475 14.5834 11.4176 14.3639 11.0269 13.9732C10.6362 13.5825 10.4167 13.0526 10.4167 12.5C10.4167 11.9475 10.6362 11.4176 11.0269 11.0269C11.4176 10.6362 11.9475 10.4167 12.5 10.4167C13.0525 10.4167 13.5824 10.6362 13.9731 11.0269C14.3638 11.4176 14.5833 11.9475 14.5833 12.5ZM21.875 12.5C21.875 13.0526 21.6555 13.5825 21.2648 13.9732C20.8741 14.3639 20.3442 14.5834 19.7917 14.5834C19.2391 14.5834 18.7092 14.3639 18.3185 13.9732C17.9278 13.5825 17.7083 13.0526 17.7083 12.5C17.7083 11.9475 17.9278 11.4176 18.3185 11.0269C18.7092 10.6362 19.2391 10.4167 19.7917 10.4167C20.3442 10.4167 20.8741 10.6362 21.2648 11.0269C21.6555 11.4176 21.875 11.9475 21.875 12.5Z" fill="#6D5D5D"/>
</g>
</svg>
