<svg width="28" height="28" viewBox="0 0 28 28" fill="none" xmlns="http://www.w3.org/2000/svg">
<g id="basil:instagram-solid">
<path id="Vector" d="M13.9999 10.2083C12.9943 10.2083 12.0299 10.6078 11.3188 11.3189C10.6077 12.03 10.2083 12.9944 10.2083 14C10.2083 15.0056 10.6077 15.97 11.3188 16.6811C12.0299 17.3922 12.9943 17.7917 13.9999 17.7917C15.0055 17.7917 15.97 17.3922 16.681 16.6811C17.3921 15.97 17.7916 15.0056 17.7916 14C17.7916 12.9944 17.3921 12.03 16.681 11.3189C15.97 10.6078 15.0055 10.2083 13.9999 10.2083Z" fill="#7E3AF2"/>
<path id="Vector_2" fill-rule="evenodd" clip-rule="evenodd" d="M7.89845 3.59568C11.9538 3.14617 16.0464 3.14617 20.1018 3.59568C22.3173 3.84302 24.1034 5.58718 24.3636 7.81085C24.8445 11.9229 24.8445 16.0771 24.3636 20.1892C24.1034 22.4128 22.3173 24.157 20.103 24.4055C16.0472 24.8552 11.9542 24.8552 7.89845 24.4055C5.68295 24.157 3.89678 22.4128 3.63662 20.1903C3.15563 16.0779 3.15563 11.9233 3.63662 7.81085C3.89678 5.58718 5.68295 3.84302 7.89845 3.59568ZM19.8334 7.00002C19.524 7.00002 19.2273 7.12293 19.0085 7.34172C18.7897 7.56052 18.6668 7.85726 18.6668 8.16668C18.6668 8.4761 18.7897 8.77285 19.0085 8.99164C19.2273 9.21043 19.524 9.33335 19.8334 9.33335C20.1429 9.33335 20.4396 9.21043 20.6584 8.99164C20.8772 8.77285 21.0001 8.4761 21.0001 8.16668C21.0001 7.85726 20.8772 7.56052 20.6584 7.34172C20.4396 7.12293 20.1429 7.00002 19.8334 7.00002ZM8.45845 14C8.45845 12.5303 9.0423 11.1207 10.0816 10.0815C11.1208 9.0422 12.5304 8.45835 14.0001 8.45835C15.4699 8.45835 16.8794 9.0422 17.9187 10.0815C18.9579 11.1207 19.5418 12.5303 19.5418 14C19.5418 15.4698 18.9579 16.8793 17.9187 17.9186C16.8794 18.9578 15.4699 19.5417 14.0001 19.5417C12.5304 19.5417 11.1208 18.9578 10.0816 17.9186C9.0423 16.8793 8.45845 15.4698 8.45845 14Z" fill="#7E3AF2"/>
</g>
</svg>
