<svg xmlns="http://www.w3.org/2000/svg" width="25" height="25" viewBox="0 0 25 25" fill="none">
  <path d="M20.8854 11.4583H4.11458C3.56805 11.4583 3.125 11.9014 3.125 12.4479V12.5521C3.125 13.0986 3.56805 13.5416 4.11458 13.5416H20.8854C21.4319 13.5416 21.875 13.0986 21.875 12.5521V12.4479C21.875 11.9014 21.4319 11.4583 20.8854 11.4583Z" fill="black"/>
  <path d="M20.8854 16.6667H4.11458C3.56805 16.6667 3.125 17.1097 3.125 17.6563V17.7604C3.125 18.307 3.56805 18.75 4.11458 18.75H20.8854C21.4319 18.75 21.875 18.307 21.875 17.7604V17.6563C21.875 17.1097 21.4319 16.6667 20.8854 16.6667Z" fill="black"/>
  <path d="M20.8854 6.25H4.11458C3.56805 6.25 3.125 6.69305 3.125 7.23958V7.34375C3.125 7.89028 3.56805 8.33333 4.11458 8.33333H20.8854C21.4319 8.33333 21.875 7.89028 21.875 7.34375V7.23958C21.875 6.69305 21.4319 6.25 20.8854 6.25Z" fill="black"/>
</svg>