<svg xmlns="http://www.w3.org/2000/svg" width="23" height="24" viewBox="0 0 23 24" fill="none">
  <path d="M9.82269 2C11.3253 1.99983 12.7969 2.44648 14.065 3.28763C15.3331 4.12878 16.3452 5.3296 16.9828 6.74941C17.6204 8.16922 17.857 9.74922 17.665 11.3043C17.4729 12.8594 16.8602 14.3252 15.8985 15.53L21.3514 21.22C21.4461 21.3117 21.5152 21.4283 21.5516 21.5575C21.5881 21.6868 21.5904 21.8239 21.5584 21.9544C21.5265 22.0849 21.4613 22.204 21.3699 22.2992C21.2785 22.3943 21.1642 22.462 21.039 22.495C20.9141 22.5284 20.7828 22.5261 20.659 22.4883C20.5352 22.4504 20.4235 22.3785 20.3356 22.28L14.8827 16.59C13.9069 17.4378 12.7499 18.0278 11.5094 18.3103C10.2689 18.5928 8.98141 18.5594 7.75591 18.2128C6.53041 17.8663 5.40291 17.2169 4.46879 16.3195C3.53467 15.4222 2.8214 14.3033 2.38933 13.0574C1.95726 11.8116 1.81909 10.4755 1.98652 9.16216C2.15394 7.84883 2.62202 6.59689 3.35118 5.51224C4.08033 4.42759 5.04911 3.54214 6.17556 2.93079C7.30201 2.31944 8.55299 2.00017 9.82269 2ZM3.35394 10.25C3.35394 11.1364 3.52126 12.0142 3.84634 12.8331C4.17143 13.6521 4.64791 14.3962 5.24859 15.023C5.84927 15.6498 6.56238 16.147 7.3472 16.4862C8.13203 16.8254 8.9732 17 9.82269 17C10.6722 17 11.5133 16.8254 12.2982 16.4862C13.083 16.147 13.7961 15.6498 14.3968 15.023C14.9975 14.3962 15.4739 13.6521 15.799 12.8331C16.1241 12.0142 16.2914 11.1364 16.2914 10.25C16.2914 8.45979 15.6099 6.7429 14.3968 5.47703C13.1837 4.21116 11.5383 3.5 9.82269 3.5C8.10707 3.5 6.46172 4.21116 5.24859 5.47703C4.03547 6.7429 3.35394 8.45979 3.35394 10.25Z" fill="black"/>
</svg>