<svg width="27" height="23" viewBox="0 0 27 23" fill="none" xmlns="http://www.w3.org/2000/svg">
<g id="fa6-brands:youtube">
<path id="Vector" d="M24.9328 5.57404C24.6479 4.51164 23.8086 3.67492 22.7428 3.39097C20.8111 2.875 13.0651 2.875 13.0651 2.875C13.0651 2.875 5.31907 2.875 3.38729 3.39097C2.32155 3.67497 1.48218 4.51164 1.1973 5.57404C0.679688 7.49971 0.679688 11.5174 0.679688 11.5174C0.679688 11.5174 0.679688 15.5352 1.1973 17.4608C1.48218 18.5232 2.32155 19.3251 3.38729 19.609C5.31907 20.125 13.0651 20.125 13.0651 20.125C13.0651 20.125 20.811 20.125 22.7428 19.609C23.8086 19.3251 24.6479 18.5232 24.9328 17.4608C25.4504 15.5352 25.4504 11.5174 25.4504 11.5174C25.4504 11.5174 25.4504 7.49971 24.9328 5.57404ZM10.5317 15.1652V7.86964L17.0058 11.5175L10.5317 15.1652Z" fill="#7E3AF2"/>
</g>
</svg>
